HIERARCHY
ROOT Hips
{
	OFFSET 0.000000 0.000000 0.000000
	CHANNELS 6 Xposition Yposition Zposition Xrotation Yrotation Zrotation
	JOINT LeftUpLeg_virtual
	{
		OFFSET 0.000000 0.000000 0.000000
		CHANNELS 3 Xrotation Yrotation Zrotation
		JOINT LeftUpLeg
		{
			OFFSET 10.205400 -3.823500 0.155100
			CHANNELS 3 Xrotation Yrotation Zrotation
			JOINT LeftLeg
			{
				OFFSET 0.708757 -12.982077 0.567790
				CHANNELS 3 Xrotation Yrotation Zrotation
				JOINT LeftFoot
				{
					OFFSET -0.708756 -10.717838 -2.184338
					CHANNELS 3 Xrotation Yrotation Zrotation
					JOINT LeftToeBase
					{
						OFFSET 0.108149 -7.191104 7.560241
						CHANNELS 3 Xrotation Yrotation Zrotation
						JOINT LeftToe_End
						{
							OFFSET 0.070230 0.081724 4.490308
							CHANNELS 3 Xrotation Yrotation Zrotation
							End Site
							{
								OFFSET 0 0 0
							}
						}
					}
				}
			}
		}
	}
	JOINT RightUpLeg_virtual
	{
		OFFSET 0.000000 0.000000 0.000000
		CHANNELS 3 Xrotation Yrotation Zrotation
		JOINT RightUpLeg
		{
			OFFSET -10.205400 -3.823500 0.005500
			CHANNELS 3 Xrotation Yrotation Zrotation
			JOINT RightLeg
			{
				OFFSET -0.708756 -12.982134 0.610632
				CHANNELS 3 Xrotation Yrotation Zrotation
				JOINT RightFoot
				{
					OFFSET 0.708754 -10.717769 -1.945823
					CHANNELS 3 Xrotation Yrotation Zrotation
					JOINT RightToeBase
					{
						OFFSET -0.108140 -7.191069 7.372968
						CHANNELS 3 Xrotation Yrotation Zrotation
						JOINT RightToe_End
						{
							OFFSET -0.070227 0.081735 4.479403
							CHANNELS 3 Xrotation Yrotation Zrotation
							End Site
							{
								OFFSET 0 0 0
							}
						}
					}
				}
			}
		}
	}
	JOINT Spine_virtual
	{
		OFFSET 0.000000 0.000000 0.000000
		CHANNELS 3 Xrotation Yrotation Zrotation
		JOINT Spine
		{
			OFFSET 0.000000 6.876099 0.125700
			CHANNELS 3 Xrotation Yrotation Zrotation
			JOINT Spine1
			{
				OFFSET 0.000000 5.730043 0.104720
				CHANNELS 3 Xrotation Yrotation Zrotation
				JOINT Spine1_split
				{
					OFFSET 0.000000 5.730043 0.104720
					CHANNELS 3 Xrotation Yrotation Zrotation
					JOINT Spine2
					{
						OFFSET 0.000000 5.730043 0.104720
						CHANNELS 3 Xrotation Yrotation Zrotation
						JOINT Neck_virtual
						{
							OFFSET 0.000000 0.000000 0.000000
							CHANNELS 3 Xrotation Yrotation Zrotation
							JOINT Neck
							{
								OFFSET 0.000000 10.314075 0.188496
								CHANNELS 3 Xrotation Yrotation Zrotation
								JOINT Head
								{
									OFFSET 0.000000 7.643700 -2.377400
									CHANNELS 3 Xrotation Yrotation Zrotation
									JOINT HeadTop_End
									{
										OFFSET 0.000000 43.788605 -13.619600
										CHANNELS 3 Xrotation Yrotation Zrotation
										End Site
										{
											OFFSET 0 0 0
										}
									}
								}
							}
						}
						JOINT LeftShoulder_virtual
						{
							OFFSET 0.000000 0.000000 0.000000
							CHANNELS 3 Xrotation Yrotation Zrotation
							JOINT LeftShoulder
							{
								OFFSET 2.196100 4.412489 0.087492
								CHANNELS 3 Xrotation Yrotation Zrotation
								JOINT LeftShoulder_split
								{
									OFFSET 2.196100 4.412489 0.087492
									CHANNELS 3 Xrotation Yrotation Zrotation
									JOINT LeftArm
									{
										OFFSET 8.771219 -2.981674 -0.026999
										CHANNELS 3 Xrotation Yrotation Zrotation
										JOINT LeftForeArm
										{
											OFFSET 8.512804 0.000000 -0.000000
											CHANNELS 3 Xrotation Yrotation Zrotation
											JOINT LeftHand
											{
												OFFSET 18.484802 0.000000 -0.000000
												CHANNELS 3 Xrotation Yrotation Zrotation
												End Site
												{
													OFFSET 0 0 0
												}
											}
										}
									}
								}
							}
						}
						JOINT RightShoulder_virtual
						{
							OFFSET 0.000000 0.000000 0.000000
							CHANNELS 3 Xrotation Yrotation Zrotation
							JOINT RightShoulder
							{
								OFFSET -2.196100 4.412496 0.070690
								CHANNELS 3 Xrotation Yrotation Zrotation
								JOINT RightShoulder_split
								{
									OFFSET -2.196100 4.412496 0.070690
									CHANNELS 3 Xrotation Yrotation Zrotation
									JOINT RightArm
									{
										OFFSET -8.771282 -2.981682 -0.094208
										CHANNELS 3 Xrotation Yrotation Zrotation
										JOINT RightForeArm
										{
											OFFSET -8.494598 0.000000 0.000000
											CHANNELS 3 Xrotation Yrotation Zrotation
											JOINT RightHand
											{
												OFFSET -18.483803 0.000000 0.000001
												CHANNELS 3 Xrotation Yrotation Zrotation
												End Site
												{
													OFFSET 0 0 0
												}
											}
										}
									}
								}
							}
						}
					}
				}
			}
		}
	}
}
MOTION
Frames: 6
Frame Time: 0.03333333
20.467194 26.345078 97.817558 0.000000 0.000000 0.000000 2.120319 26.235361 -12.669561 7.306384 9.724801 -9.535750 102.560802 10.397923 1.632542 -20.744454 1.623996 13.949645 2.678266 -0.000013 -0.000003 0.000000 0.000000 0.000000 2.120319 26.235361 -12.669561 -56.168870 4.850306 -2.995522 47.354265 6.352435 -0.268445 2.698701 4.466802 18.360655 -3.222575 0.000043 0.000004 0.000000 0.000000 0.000000 2.120319 26.235361 -12.669561 2.189012 -6.890965 -3.198234 2.171916 -3.807845 1.397092 0.000000 0.000000 0.000000 0.000000 0.000000 0.000000 2.111295 -3.874993 1.334497 2.146347 3.277002 0.282028 -11.327451 36.663755 5.753511 0.000000 0.000000 0.000000 2.111295 -3.874993 1.334497 0.543622 -1.205997 -9.510573 0.000000 0.000000 0.000000 18.985848 -16.238951 -51.504179 0.000086 -80.003338 0.000077 0.000000 0.000000 0.000000 2.111295 -3.874993 1.334497 0.640671 -6.488252 9.965689 0.000000 0.000000 0.000000 34.769812 13.168156 44.617757 179.999950 84.495437 -179.999991 0.000000 0.000000 0.000000 
23.365089 27.030273 102.157021 0.000000 0.000000 0.000000 0.966321 27.512031 -12.958754 -26.510304 16.978843 -5.573942 123.695545 15.614053 3.371583 -24.061510 0.094993 12.289922 -0.665712 0.000013 0.000001 0.000000 0.000000 0.000000 0.966321 27.512031 -12.958754 -43.878238 5.388695 -3.408045 58.169641 8.439640 0.349056 -18.794901 0.456955 14.873517 -4.331793 0.000025 -0.000002 0.000000 0.000000 0.000000 0.966321 27.512031 -12.958754 4.322542 -2.331622 -3.448788 3.685480 -1.693000 1.426702 0.000000 0.000000 0.000000 0.000000 0.000000 0.000000 3.657015 -1.820087 1.396204 0.856921 2.472376 0.809331 -13.888071 30.928592 5.475027 0.000000 0.000000 0.000000 3.657015 -1.820087 1.396204 0.537705 -0.925226 -8.721396 0.000000 0.000000 0.000000 28.704789 -17.140804 -55.244342 0.000003 -63.812019 0.000016 0.000000 0.000000 0.000000 3.657015 -1.820087 1.396204 0.815841 -4.239259 12.336019 0.000000 0.000000 0.000000 15.586528 20.224414 47.923312 179.999527 87.388282 -179.999623 0.000000 0.000000 0.000000 
26.117165 26.958069 106.166611 0.000000 0.000000 0.000000 0.143833 29.003066 -14.150426 -76.108818 17.665033 3.269608 122.996325 17.606570 3.576152 0.968919 -0.685341 18.321648 -15.339640 -1.331971 5.360715 0.000000 0.000000 0.000000 0.143833 29.003066 -14.150426 -28.565905 4.284486 -2.680512 61.526645 8.110950 0.572297 -35.335475 -1.013639 9.608305 -5.746735 0.000069 -0.000000 0.000000 0.000000 0.000000 0.143833 29.003066 -14.150426 5.639221 0.404470 -1.964176 4.651099 0.654912 1.633855 0.000000 0.000000 0.000000 0.000000 0.000000 0.000000 4.657233 0.491974 1.673787 0.396496 1.761077 0.948529 -15.762644 26.254665 5.119163 0.000000 0.000000 0.000000 4.657233 0.491974 1.673787 0.472292 0.823558 -6.563710 0.000000 0.000000 0.000000 41.287028 -17.715622 -58.148693 0.000034 -58.979838 0.000049 0.000000 0.000000 0.000000 4.657233 0.491974 1.673787 0.625959 0.265405 11.023060 0.000000 0.000000 0.000000 -6.297829 23.802338 54.826898 -180.000005 83.353060 179.999964 0.000000 0.000000 0.000000 
26.117165 26.958069 106.166611 0.000000 0.000000 0.000000 0.143833 29.003066 -14.150426 -76.108818 17.665033 3.269608 122.996325 17.606570 3.576152 0.968919 -0.685341 18.321648 -15.339640 -1.331971 5.360715 0.000000 0.000000 0.000000 0.143833 29.003066 -14.150426 -28.565905 4.284486 -2.680512 61.526645 8.110950 0.572297 -35.335475 -1.013639 9.608305 -5.746735 0.000069 -0.000000 0.000000 0.000000 0.000000 0.143833 29.003066 -14.150426 5.639221 0.404470 -1.964176 4.651099 0.654912 1.633855 0.000000 0.000000 0.000000 0.000000 0.000000 0.000000 4.657233 0.491974 1.673787 0.396496 1.761077 0.948529 -15.762644 26.254665 5.119163 0.000000 0.000000 0.000000 4.657233 0.491974 1.673787 0.472292 0.823558 -6.563710 0.000000 0.000000 0.000000 41.287028 -17.715622 -58.148693 0.000034 -58.979838 0.000049 0.000000 0.000000 0.000000 4.657233 0.491974 1.673787 0.625959 0.265405 11.023060 0.000000 0.000000 0.000000 -6.297829 23.802338 54.826898 -180.000005 83.353060 179.999964 0.000000 0.000000 0.000000 
26.117165 26.958069 106.166611 0.000000 0.000000 0.000000 0.143833 29.003066 -14.150426 -76.108818 17.665033 3.269608 122.996325 17.606570 3.576152 0.968919 -0.685341 18.321648 -15.339640 -1.331971 5.360715 0.000000 0.000000 0.000000 0.143833 29.003066 -14.150426 -28.565905 4.284486 -2.680512 61.526645 8.110950 0.572297 -35.335475 -1.013639 9.608305 -5.746735 0.000069 -0.000000 0.000000 0.000000 0.000000 0.143833 29.003066 -14.150426 5.639221 0.404470 -1.964176 4.651099 0.654912 1.633855 0.000000 0.000000 0.000000 0.000000 0.000000 0.000000 4.657233 0.491974 1.673787 0.396496 1.761077 0.948529 -15.762644 26.254665 5.119163 0.000000 0.000000 0.000000 4.657233 0.491974 1.673787 0.472292 0.823558 -6.563710 0.000000 0.000000 0.000000 41.287028 -17.715622 -58.148693 0.000034 -58.979838 0.000049 0.000000 0.000000 0.000000 4.657233 0.491974 1.673787 0.625959 0.265405 11.023060 0.000000 0.000000 0.000000 -6.297829 23.802338 54.826898 -180.000005 83.353060 179.999964 0.000000 0.000000 0.000000 
26.117165 26.958069 106.166611 0.000000 0.000000 0.000000 0.143833 29.003066 -14.150426 -76.108818 17.665033 3.269608 122.996325 17.606570 3.576152 0.968919 -0.685341 18.321648 -15.339640 -1.331971 5.360715 0.000000 0.000000 0.000000 0.143833 29.003066 -14.150426 -28.565905 4.284486 -2.680512 61.526645 8.110950 0.572297 -35.335475 -1.013639 9.608305 -5.746735 0.000069 -0.000000 0.000000 0.000000 0.000000 0.143833 29.003066 -14.150426 5.639221 0.404470 -1.964176 4.651099 0.654912 1.633855 0.000000 0.000000 0.000000 0.000000 0.000000 0.000000 4.657233 0.491974 1.673787 0.396496 1.761077 0.948529 -15.762644 26.254665 5.119163 0.000000 0.000000 0.000000 4.657233 0.491974 1.673787 0.472292 0.823558 -6.563710 0.000000 0.000000 0.000000 41.287028 -17.715622 -58.148693 0.000034 -58.979838 0.000049 0.000000 0.000000 0.000000 4.657233 0.491974 1.673787 0.625959 0.265405 11.023060 0.000000 0.000000 0.000000 -6.297829 23.802338 54.826898 -180.000005 83.353060 179.999964 0.000000 0.000000 0.000000 
